<?xml version="1.0" encoding="UTF-8" standalone="no"?>
<svg
   xmlns:dc="http://purl.org/dc/elements/1.1/"
   xmlns:cc="http://creativecommons.org/ns#"
   xmlns:rdf="http://www.w3.org/1999/02/22-rdf-syntax-ns#"
   xmlns:svg="http://www.w3.org/2000/svg"
   xmlns="http://www.w3.org/2000/svg"
   xmlns:sodipodi="http://sodipodi.sourceforge.net/DTD/sodipodi-0.dtd"
   xmlns:inkscape="http://www.inkscape.org/namespaces/inkscape"
   height="342.95483"
   width="518.26276"
   viewBox="-29.99775 -38.70675 112.28184 99.560003"
   version="1.1"
   id="svg889"
   sodipodi:docname="nvidia-suspend.svg"
   inkscape:version="1.0.1 (3bc2e813f5, 2020-09-07, custom)">
  <metadata
     id="metadata895">
    <rdf:RDF>
      <cc:Work
         rdf:about="">
        <dc:format>image/svg+xml</dc:format>
        <dc:type
           rdf:resource="http://purl.org/dc/dcmitype/StillImage" />
        <dc:title></dc:title>
      </cc:Work>
    </rdf:RDF>
  </metadata>
  <defs
     id="defs893" />
  <sodipodi:namedview
     pagecolor="#ffffff"
     bordercolor="#666666"
     borderopacity="1"
     objecttolerance="10"
     gridtolerance="10"
     guidetolerance="10"
     inkscape:pageopacity="0"
     inkscape:pageshadow="2"
     inkscape:window-width="2560"
     inkscape:window-height="1440"
     id="namedview891"
     showgrid="false"
     inkscape:zoom="0.793125"
     inkscape:cx="-28.818224"
     inkscape:cy="43.737877"
     inkscape:window-x="1920"
     inkscape:window-y="-28"
     inkscape:window-maximized="1"
     inkscape:current-layer="svg889"
     inkscape:document-rotation="0"
     fit-margin-top="0"
     fit-margin-left="0"
     fit-margin-right="0"
     fit-margin-bottom="0" />
  <path
     fill="#76b900"
     d="M 7.0531689,-8.9987496 V -17.99175 a 67.728,67.728 0 0 1 2.653,-0.136 c 24.5960001,-0.773 40.7330001,21.1340004 40.7330001,21.1340004 0,0 -17.428,24.2059996 -36.115,24.2059996 -2.692,0 -5.1000001,-0.433 -7.2710001,-1.162 V -1.2197496 c 9.5750001,1.15599995 11.5000001,5.386 17.2580001,14.9819996 l 12.803,-10.7949996 c 0,0 -9.345,-12.258 -25.1,-12.258 -1.715,0 -3.3530001,0.12 -4.9610001,0.292 z m 0,-29.7070004 v 13.433 c 0.882,-0.07 1.766,-0.126 2.653,-0.158 34.2050001,-1.152 56.4890001,28.0520004 56.4890001,28.0520004 0,0 -25.597,31.1239996 -52.262,31.1239996 -2.443,0 -4.7300001,-0.225 -6.8800001,-0.606 v 8.303 c 1.838,0.234 3.7420001,0.372 5.7300001,0.372 24.815,0 42.76,-12.672 60.138,-27.671 2.879,2.307 14.675,7.919 17.1,10.378 -16.523,13.832 -55.028,24.98 -76.857,24.98 a 63.43,63.43 0 0 1 -6.1110001,-0.318 v 11.67 H 101.36917 v -99.56 H 7.0541689 Z m 0,64.756 v 7.09 C -15.898831,29.04725 -22.268831,5.1902504 -22.268831,5.1902504 c 0,0 11.02,-12.21 29.3219999,-14.189 v 7.779 c -0.014,0 -0.024,-0.004 -0.036,-0.004 -9.604,-1.154 -17.1079999,7.82 -17.1079999,7.82 0,0 4.2039999,15.1059996 17.1439999,19.4539996 z M -33.710831,4.1552504 c 0,0 13.602,-20.0730004 40.7639999,-22.1480004 v -7.28 c -30.0839999,2.414 -56.1359999,27.8930004 -56.1359999,27.8930004 0,0 14.754,42.6579996 56.1369999,46.5629996 v -7.74 C -23.313831,37.62125 -33.710831,4.1552504 -33.710831,4.1552504 Z"
     id="path885"
     style="opacity:1;fill:#b3b3b3;fill-opacity:1;fill-rule:evenodd;stroke-width:0.999548;stroke-miterlimit:4;stroke-dasharray:none" />
</svg>
